<?xml version="1.0" standalone="no"?>
<!DOCTYPE svg PUBLIC "-//W3C//DTD SVG 20010904//EN"
 "http://www.w3.org/TR/2001/REC-SVG-20010904/DTD/svg10.dtd">
<svg version="1.0" xmlns="http://www.w3.org/2000/svg"
 width="512.000000pt" height="512.000000pt" viewBox="0 0 512.000000 512.000000"
 preserveAspectRatio="xMidYMid meet">

<g transform="translate(0.000000,512.000000) scale(0.100000,-0.100000)"
fill="#000000" stroke="none">
<path d="M2513 5105 c-67 -29 -67 -34 -73 -394 l-5 -324 -143 215 c-79 119
-156 228 -171 242 -56 53 -140 41 -181 -27 -39 -64 -39 -66 179 -392 l161
-240 -83 -16 c-320 -63 -638 -215 -912 -433 -271 -217 -526 -550 -648 -846
-232 -565 -140 -1088 265 -1506 l69 -70 -16 -37 c-51 -121 -62 -341 -26 -506
94 -430 460 -665 1147 -735 375 -39 575 -39 964 -1 788 78 1169 387 1171 949
0 123 -15 217 -46 293 l-16 37 69 70 c527 544 520 1284 -19 1981 -85 111 -256
284 -364 371 -274 218 -592 370 -912 433 l-83 16 161 240 c218 326 218 328
179 392 -41 68 -125 80 -181 27 -15 -14 -92 -123 -171 -242 l-143 -215 -5 324
c-6 362 -6 366 -75 395 -42 17 -51 17 -92 -1z m317 -1041 c623 -95 1218 -542
1501 -1129 100 -206 144 -373 156 -581 16 -300 -106 -622 -327 -857 l-68 -72
-23 30 c-84 108 -209 215 -404 347 -408 276 -535 412 -720 763 -37 72 -81 148
-96 170 -46 64 -114 104 -207 122 -75 15 -89 15 -164 0 -93 -18 -161 -58 -207
-122 -15 -22 -59 -98 -96 -170 -185 -351 -312 -487 -720 -763 -195 -132 -320
-239 -404 -347 l-23 -30 -68 72 c-118 126 -212 284 -268 448 -105 310 -73 638
97 990 100 208 225 381 400 555 460 456 1052 663 1641 574z m-144 -1345 c52
-24 83 -69 173 -244 90 -178 178 -301 311 -436 106 -107 174 -160 471 -369
371 -262 473 -434 447 -761 -35 -455 -351 -680 -1058 -754 -381 -39 -559 -39
-940 0 -623 65 -942 249 -1035 600 -39 144 -34 353 9 469 64 170 166 275 471
486 289 201 404 298 521 444 93 115 143 195 214 337 73 144 109 198 150 222
67 40 189 43 266 6z"/>
<path d="M1441 2925 c-86 -19 -163 -58 -200 -100 -54 -62 -60 -144 -11 -160
38 -12 64 2 85 47 25 54 79 83 188 100 59 9 94 9 153 0 108 -17 164 -47 189
-100 21 -45 47 -59 85 -47 40 13 44 83 6 140 -67 102 -312 162 -495 120z"/>
<path d="M3405 2925 c-155 -34 -243 -106 -247 -202 -1 -40 20 -63 59 -63 26 0
37 11 61 60 35 71 194 114 340 92 108 -17 162 -46 187 -100 42 -92 141 -55
114 42 -38 137 -290 221 -514 171z"/>
<path d="M2306 2235 c-9 -9 -16 -27 -16 -40 0 -24 38 -114 60 -140 16 -20 64
-19 84 1 24 23 20 54 -16 125 -29 56 -37 64 -64 67 -19 2 -38 -3 -48 -13z"/>
<path d="M2732 2237 c-20 -23 -62 -122 -62 -144 0 -30 26 -53 59 -53 33 0 46
13 78 81 27 59 29 91 7 113 -19 19 -67 21 -82 3z"/>
</g>
</svg>
