<?xml version="1.0" standalone="no"?>
<!DOCTYPE svg PUBLIC "-//W3C//DTD SVG 20010904//EN"
 "http://www.w3.org/TR/2001/REC-SVG-20010904/DTD/svg10.dtd">
<svg version="1.0" xmlns="http://www.w3.org/2000/svg"
 width="673.000000pt" height="673.000000pt" viewBox="0 0 673.000000 673.000000"
 preserveAspectRatio="xMidYMid meet">
<metadata>
Created by potrace 1.14, written by Peter Selinger 2001-2017
</metadata>
<g transform="translate(0.000000,673.000000) scale(0.100000,-0.100000)"
fill="#000000" stroke="none">
<path d="M3095 6720 c-177 -18 -210 -22 -216 -26 -3 -1 -30 -6 -60 -9 -30 -4
-119 -22 -199 -41 -80 -19 -156 -37 -169 -40 -14 -3 -28 -7 -33 -10 -4 -3 -16
-7 -25 -9 -46 -9 -221 -72 -338 -122 -120 -51 -323 -149 -335 -162 -3 -3 -25
-17 -50 -30 -87 -47 -327 -209 -375 -253 -7 -7 -28 -24 -46 -38 -159 -119
-381 -345 -538 -547 -178 -230 -306 -446 -451 -768 -83 -184 -186 -545 -215
-753 -4 -30 -14 -93 -21 -132 -12 -74 -19 -219 -19 -415 0 -247 10 -376 44
-565 5 -30 12 -71 16 -90 3 -19 16 -75 27 -125 12 -49 22 -92 23 -95 1 -3 4
-14 7 -25 4 -11 19 -60 34 -110 56 -186 178 -467 282 -650 178 -313 460 -659
703 -865 29 -25 60 -52 69 -60 36 -34 183 -143 298 -219 140 -94 357 -214 482
-267 47 -19 99 -42 115 -49 48 -22 113 -45 230 -82 147 -47 257 -75 425 -108
14 -3 57 -10 95 -15 39 -6 81 -13 95 -15 150 -26 667 -26 832 0 258 41 376 65
528 111 100 29 222 71 265 89 191 81 245 105 335 152 174 91 345 197 455 282
22 17 53 41 70 54 132 99 361 314 454 426 20 24 43 51 52 60 9 9 48 59 87 111
40 52 76 100 81 106 8 10 96 144 147 226 41 64 151 279 189 368 146 341 225
640 272 1040 10 88 10 515 0 615 -12 107 -16 142 -23 190 -12 81 -15 102 -30
170 -8 39 -17 79 -19 90 -21 114 -105 379 -170 535 -49 119 -168 354 -233 459
-61 100 -169 261 -182 271 -3 3 -19 23 -36 45 -135 183 -370 421 -574 580
-494 387 -1091 635 -1685 700 -33 4 -73 9 -90 12 -53 8 -507 10 -580 3z"/>
</g>
</svg>
