<?xml version="1.0" standalone="no"?>
<!DOCTYPE svg PUBLIC "-//W3C//DTD SVG 20010904//EN"
 "http://www.w3.org/TR/2001/REC-SVG-20010904/DTD/svg10.dtd">
<svg version="1.0" xmlns="http://www.w3.org/2000/svg"
 width="512.000000pt" height="512.000000pt" viewBox="0 0 512.000000 512.000000"
 preserveAspectRatio="xMidYMid meet">
<metadata>
Created by potrace 1.14, written by Peter Selinger 2001-2017
</metadata>
<g transform="translate(0.000000,512.000000) scale(0.100000,-0.100000)"
fill="#000000" stroke="none">
<path d="M2520 5112 c-24 -8 -61 -45 -72 -72 -5 -14 -10 -159 -9 -338 l0 -313
-28 38 c-15 21 -49 72 -76 113 -28 41 -53 77 -57 78 -5 2 -8 8 -8 13 0 6 -18
34 -40 64 -22 30 -40 57 -40 60 0 9 -42 65 -70 94 -20 20 -35 25 -77 26 -46 0
-56 -4 -85 -33 -28 -28 -33 -39 -32 -80 0 -44 11 -64 172 -305 95 -141 172
-262 172 -267 0 -6 -8 -10 -17 -11 -63 -3 -235 -48 -358 -94 -505 -188 -960
-593 -1200 -1070 -96 -192 -141 -327 -171 -515 -3 -19 -7 -46 -10 -60 -3 -14
-5 -74 -5 -135 1 -341 150 -682 414 -948 37 -37 45 -51 38 -65 -48 -91 -66
-255 -48 -432 30 -291 192 -513 482 -657 155 -78 424 -145 674 -169 31 -3 74
-7 96 -9 234 -24 607 -24 780 0 17 2 62 6 100 10 67 5 121 12 175 21 14 3 43
7 65 10 22 4 90 19 150 35 453 117 689 334 765 704 12 56 17 291 7 325 -2 8
-7 33 -12 55 -4 22 -16 59 -26 82 l-18 41 55 59 c82 87 156 180 209 264 80
128 160 338 180 474 3 22 8 46 11 54 6 19 6 259 -1 291 -2 13 -7 42 -11 65
-35 239 -147 497 -336 779 -7 10 -17 24 -23 30 -5 6 -35 43 -66 81 -307 384
-808 688 -1261 768 l-68 12 170 254 c93 139 174 269 180 287 7 19 9 47 5 63
-7 32 -49 75 -83 86 -32 9 -85 -2 -109 -23 -11 -9 -84 -114 -163 -232 -79
-118 -147 -219 -151 -223 -4 -5 -7 132 -7 305 0 176 -5 324 -10 338 -21 55
-97 91 -152 72z"/>
</g>
</svg>
